<?xml version="1.0" encoding="utf-8"?>
<!-- Generator: Adobe Illustrator 16.0.4, SVG Export Plug-In . SVG Version: 6.00 Build 0)  -->
<!DOCTYPE svg PUBLIC "-//W3C//DTD SVG 1.1//EN" "http://www.w3.org/Graphics/SVG/1.1/DTD/svg11.dtd">
<svg version="1.1" id="Layer_1" xmlns="http://www.w3.org/2000/svg" xmlns:xlink="http://www.w3.org/1999/xlink" x="0px" y="0px"
	 width="513px" height="114px" viewBox="0 0 513 114" enable-background="new 0 0 513 114" xml:space="preserve">
<g>
	<g id="XMLID_1_">
		<g>
			<path d="M503.02,48.88c3.69,1.39,4.48,3.11,2.971,6.71c-2.7,6.44-5.11,13.01-7.46,19.601c-1.021,2.869-2.521,3.46-5.28,2.35
				c-7.88-3.17-15.79-6.28-23.76-9.19c-1.19-0.43-2.78,0.261-4.19,0.431c0.94,0.939,1.79,2.02,2.87,2.779
				c1.07,0.75,2.33,1.33,3.58,1.71c3.27,0.99,3.57,3.051,2.35,5.79c-1.05,2.36-1.439,5.36-5.46,3.87
				c-2.42-0.899-5.109-1.1-7.689-1.6c-0.23,0.39-0.47,0.8-0.71,1.2c1.819,1.13,3.529,2.54,5.479,3.35c6.62,2.73,13.28,5.38,20,7.79
				c3.391,1.2,4.721,2.88,2.9,6.271c-0.15,0.29-0.25,0.609-0.36,0.92c-2.95,7.72-2.95,7.72-10.47,4.8
				C462.9,99.84,448.07,93.89,433.1,88.31c-4.399-1.64-5.01-3.64-3.31-7.829c6.25-15.431,12.29-30.94,18.13-46.521
				c1.561-4.16,3.2-5.41,7.66-3.6C471.3,36.77,487.15,42.87,503.02,48.88z M502.67,57.68c-0.16-0.05-0.31-0.12-0.479-0.18
				c-2.21,5.69-4.431,11.38-6.83,17.54C485,71,474.99,67.1,464.99,63.21c-0.101,0.16-0.19,0.33-0.29,0.5
				c10.27,4,20.55,8.01,30.92,12.05C498.12,69.35,500.39,63.51,502.67,57.68z M502.1,51.51c0.03-0.1,0.07-0.21,0.11-0.31
				c-15.59-6.08-31.22-12.09-46.78-18.29c-0.22-0.09-0.43-0.17-0.63-0.23c-1.29-0.43-2.26-0.41-3.03,0.08
				c-0.27,0.16-0.52,0.4-0.75,0.69c-0.109,0.15-0.22,0.31-0.319,0.48c-0.21,0.34-0.391,0.75-0.57,1.22
				c-2.439,6.38-4.95,12.73-7.43,19.09c1.85-4.45,3.55-8.96,5.359-13.42c4.21-10.43,2.15-9.42,12.7-5.38
				c3.46,1.32,6.91,2.65,10.351,3.98c6.89,2.68,13.77,5.37,20.649,8.06c0.01,0,0.01,0,0.01,0c3.44,1.35,6.881,2.7,10.32,4.04v-0.01
				H502.1z M501.98,53.21V53.2c-3.58-1.39-7.141-2.78-10.69-4.16c-12.95-5.05-25.7-10.03-38.51-15.01
				c-6.55,16.81-12.971,33.3-19.55,50.18c6.289,2.45,12.43,4.85,18.51,7.22c3.649,1.42,7.279,2.84,10.91,4.25
				c-0.101,0.261-0.19,0.511-0.28,0.771c-3.2-1.24-6.38-2.49-9.58-3.73c-0.07,0.19-0.13,0.38-0.2,0.57
				c9.96,3.88,19.94,7.78,29.93,11.66c0.07,0.03,0.131,0.05,0.2,0.08h0.011c0.079-0.3,0.159-0.601,0.229-0.891
				c0.24-0.89,0.47-1.76,0.7-2.649c0.31-1.19,0.64-2.41,0.99-3.75c-8.36-3.26-16.45-6.74-24.761-9.53
				c-4.859-1.63-5.43-4.11-3.31-8.16c0.74-1.399,1.439-2.83,2.09-4.09c3.99,0.93,7.39,1.72,10.79,2.51c0.18-0.5,0.36-1,0.55-1.51
				c-2.359-0.91-4.68-1.92-7.08-2.729c-2.84-0.95-3.27-2.79-2.59-5.45c0.15-0.57,0.29-1.09,0.43-1.58c0.08-0.25,0.15-0.48,0.221-0.7
				c0.24-0.74,0.479-1.36,0.74-1.89c0.279-0.591,0.59-1.04,0.939-1.391c1.37-1.34,3.38-0.96,7.22,0.53
				c2.021,0.79,4.04,1.57,6.051,2.36c3.069,1.189,6.14,2.39,9.189,3.58c3.05,1.189,6.07,2.369,9.05,3.529v-0.01
				C496.99,66.01,499.49,59.61,501.98,53.21z M485.53,96.18v-0.01c-4.471-1.729-8.931-3.47-13.4-5.22
				c-4.47-1.74-8.939-3.48-13.41-5.22c-0.029,0.119-0.08,0.229-0.13,0.35c8.93,3.479,17.87,6.96,26.8,10.439
				C485.43,96.41,485.48,96.31,485.53,96.18z"/>
			<path d="M502.19,57.5c0.17,0.06,0.319,0.13,0.479,0.18c-2.28,5.83-4.55,11.67-7.05,18.08c-10.37-4.04-20.65-8.05-30.92-12.05
				c0.1-0.17,0.189-0.34,0.29-0.5c10,3.89,20.01,7.79,30.37,11.83C497.76,68.88,499.98,63.19,502.19,57.5z"/>
			<path d="M502.21,51.2c-0.04,0.1-0.08,0.21-0.11,0.31h-0.01c-3.439-1.34-6.88-2.69-10.32-4.03c0,0,0,0-0.01,0
				c-6.87-2.7-13.75-5.39-20.649-8.06c-3.44-1.33-6.891-2.66-10.351-3.98c-10.55-4.04-8.49-5.05-12.7,5.38
				c-1.81,4.46-3.51,8.97-5.359,13.42c2.479-6.36,4.99-12.71,7.43-19.09c0.18-0.47,0.36-0.88,0.57-1.22
				c0.1-0.18,0.21-0.34,0.319-0.48c0.23-0.29,0.48-0.53,0.75-0.69c0.771-0.48,1.74-0.5,3.03-0.08c0.2,0.06,0.41,0.14,0.63,0.23
				C470.99,39.11,486.62,45.12,502.21,51.2z"/>
			<path fill="#FFFF0B" d="M501.98,53.21c-2.49,6.4-4.99,12.8-7.801,20c-2.979-1.16-6-2.34-9.05-3.52
				c-3.05-1.19-6.12-2.391-9.189-3.58c-2.011-0.79-4.03-1.57-6.051-2.36c-3.84-1.49-5.85-1.87-7.22-0.53
				c-0.35,0.351-0.66,0.811-0.939,1.391c-0.261,0.529-0.5,1.149-0.74,1.89c-0.08,0.22-0.15,0.46-0.221,0.7
				c-0.14,0.49-0.279,1.01-0.43,1.58c-0.68,2.66-0.25,4.5,2.59,5.45c2.4,0.81,4.721,1.819,7.08,2.729
				c-0.189,0.51-0.37,1.01-0.55,1.51c-3.4-0.79-6.8-1.58-10.79-2.51c-0.65,1.26-1.35,2.69-2.09,4.09c-2.12,4.05-1.55,6.53,3.31,8.16
				c8.311,2.79,16.4,6.271,24.761,9.53c-0.351,1.34-0.681,2.56-0.99,3.75c-0.24,0.89-0.47,1.76-0.7,2.649
				c-0.08,0.29-0.16,0.591-0.24,0.891c-0.069-0.03-0.13-0.05-0.2-0.08c-9.989-3.891-19.97-7.79-29.93-11.66
				c0.07-0.19,0.13-0.38,0.2-0.57c3.2,1.24,6.38,2.49,9.58,3.73c0.09-0.26,0.18-0.51,0.28-0.771v-0.01
				c-3.631-1.41-7.261-2.82-10.91-4.24c-6.08-2.37-12.221-4.77-18.51-7.22c6.579-16.88,13-33.37,19.55-50.18
				c12.81,4.98,25.56,9.96,38.51,15.01C494.83,50.42,498.4,51.81,501.98,53.21z M476.79,45.94c0.15-0.44,0.3-0.9,0.45-1.35
				c-7.641-2.97-15.26-5.94-23.15-9.01c-2.62,6.73-5.08,13.04-7.54,19.34c0.46,0.19,0.92,0.39,1.37,0.58
				c2.23-5.7,4.46-11.41,7.04-18.06C462.88,40.52,469.83,43.23,476.79,45.94z"/>
			<path fill="#FEF059" d="M494.18,73.21v0.01c-2.979-1.16-6-2.34-9.05-3.529C488.18,70.87,491.2,72.05,494.18,73.21z"/>
			<path d="M485.53,96.18c-0.05,0.13-0.101,0.23-0.141,0.34c-8.93-3.479-17.87-6.96-26.8-10.439c0.05-0.12,0.101-0.23,0.13-0.35
				c4.471,1.739,8.94,3.479,13.41,5.22C476.6,92.7,481.07,94.44,485.53,96.18z"/>
			<path d="M477.24,44.59c-0.15,0.45-0.3,0.91-0.45,1.35c-6.96-2.71-13.91-5.42-21.83-8.5c-2.58,6.65-4.81,12.36-7.04,18.06
				c-0.45-0.19-0.91-0.39-1.37-0.58c2.46-6.3,4.92-12.61,7.54-19.34C461.98,38.65,469.6,41.62,477.24,44.59z"/>
			<path fill="#FEF059" d="M452.59,93.29c9.96,3.87,19.94,7.77,29.93,11.66C472.53,101.07,462.55,97.17,452.59,93.29z"/>
			<path fill="#FEF059" d="M462.65,95.67v0.01c-3.631-1.41-7.261-2.83-10.91-4.25C455.39,92.85,459.02,94.26,462.65,95.67z"/>
			<path d="M451.77,32.76c0.771-0.49,1.74-0.51,3.03-0.08C453.51,32.26,452.54,32.28,451.77,32.76z"/>
			<path d="M435.68,51.8C436,68.54,421.65,82.97,404.32,83.29c-16.88,0.32-31.101-13.55-31.46-30.72
				c-0.37-17.36,13.42-30.95,31.77-31.27C421.06,21,435.36,35.04,435.68,51.8z M431.6,52.21c0.24-14.25-15.609-29.59-26.939-28.82
				C395.77,24,387.81,28.01,382.8,34.68c-0.79,1.05-1.51,2.17-2.149,3.35c-0.641,1.18-1.19,2.43-1.66,3.73
				c-0.311,0.87-0.58,1.77-0.811,2.7c-0.58,2.31-0.89,4.78-0.899,7.4c-0.05,8.27,3.43,15.53,9.109,20.5
				c1.33,1.159,2.78,2.199,4.33,3.09c1.16,0.68,2.38,1.27,3.65,1.78c0.85,0.34,1.72,0.64,2.61,0.89c2.68,0.79,5.539,1.2,8.529,1.2
				C419.93,79.32,431.37,67.28,431.6,52.21z"/>
			<path fill="#FFFF0B" d="M404.66,23.39c11.33-0.77,27.18,14.57,26.939,28.82c-0.229,15.07-11.67,27.11-26.09,27.11
				c-2.99,0-5.85-0.41-8.529-1.2c-0.891-0.26-1.761-0.561-2.61-0.89c-1.271-0.511-2.49-1.101-3.65-1.78
				c-1.55-0.891-3-1.931-4.33-3.09c-5.68-4.971-9.159-12.23-9.109-20.5c0.01-2.62,0.319-5.09,0.899-7.4
				c0.23-0.93,0.5-1.83,0.811-2.7c0.47-1.3,1.02-2.55,1.66-3.73c0.64-1.18,1.359-2.3,2.149-3.35
				C387.81,28.01,395.77,24,404.66,23.39z M405.06,76.14c10.271,1.67,23.99-9.229,21.44-17.34
				C422.76,69.16,414.28,73.11,405.06,76.14z"/>
			<path d="M426.5,58.8c2.55,8.11-11.17,19.01-21.44,17.34C414.28,73.11,422.76,69.16,426.5,58.8z"/>
			<path d="M335.01,71.09C335,71.13,335,71.17,335,71.21v0.01v0.011c0,0.01,0,0.02,0,0.02c0.01,0,0.01-0.02,0.02-0.04
				c5.211,0.6,10.421,1.21,15.86,1.83c1.23-10.74,2.41-21.05,3.61-31.34c-0.21-0.03-0.41-0.05-0.61-0.08
				c-1.14,9.86-2.28,19.72-3.41,29.57c-0.17-0.021-0.35-0.04-0.52-0.061c-0.181-0.01-0.351-0.03-0.521-0.06
				c0.9-7.87,1.811-15.73,2.71-23.6c1.17-10.1,1.17-10.1,11.021-8.98c0.34,0.04,0.68,0.06,1.01,0.09c0.33,0.03,0.66,0.07,0.98,0.15
				c3.359,0.87,4.85-0.35,5.13-3.87c0.439-5.68,1.25-11.34,1.88-16.85c-15.69-1.81-31.49-3.63-46.78-5.39
				c-0.649,5.58-1.08,10.88-1.93,16.12c-0.61,3.75,0.2,5.7,4.37,5.74c2.64,0.02,5.27,0.83,7.93,0.91c3.63,0.1,4.9,1.44,4.34,5.24
				c-0.64,4.54-1.149,9.1-1.66,13.66c0,0.01,0,0.01,0,0.02c-0.449,4.05-0.899,8.08-1.43,12.12c-0.14,1.051-0.63,2.061-1.15,3.061
				c-0.199,0.38-0.399,0.779-0.59,1.17c-0.01,0.01-0.01,0.02-0.01,0.03c-0.06,0.14-0.13,0.279-0.19,0.42
				c-0.02,0.029-0.04,0.069-0.05,0.1C335,71.17,335.01,71.13,335.01,71.09z M371.88,15.45c3.311,0.36,4.15,1.75,3.771,4.9
				c-0.721,6.11-1.101,12.26-1.58,18.4c-0.271,3.47-1.23,5.71-5.53,4.75c-3.38-0.77-6.91-0.88-11.53-1.41
				c-1.13,9.71-2.34,18.771-3.14,27.86c-0.4,4.53-2.11,5.8-6.71,5.21c-14.83-1.92-14.87-1.74-13.36-16.53
				c0.601-5.78,1.32-11.54,2.08-18.1c-4.49-0.51-8.53-1.1-12.61-1.42c-3.569-0.27-5.039-1.9-4.569-5.52
				c0.83-6.44,1.58-12.9,2.229-19.36c0.33-3.38,1.851-4.47,5.28-4.04C341.42,12.08,356.65,13.82,371.88,15.45z"/>
			<path fill="#FFFF0B" d="M372.16,18.01c-0.63,5.51-1.44,11.17-1.88,16.85c-0.28,3.52-1.771,4.74-5.13,3.87
				c-0.32-0.09-0.65-0.13-0.98-0.15c-0.33-0.03-0.67-0.05-1.01-0.09c-9.851-1.12-9.851-1.12-11.021,8.98
				c-0.899,7.87-1.81,15.73-2.71,23.6v0.01c0.17,0.02,0.34,0.04,0.521,0.05c0.17,0.021,0.35,0.04,0.52,0.061
				c1.13-9.851,2.271-19.71,3.41-29.57c0.2,0.03,0.4,0.05,0.61,0.08c-1.2,10.29-2.38,20.6-3.61,31.34
				c-5.439-0.62-10.649-1.23-15.86-1.83c0.011-0.03,0.03-0.07,0.04-0.1c0.061-0.141,0.131-0.28,0.19-0.42c0-0.011,0-0.021,0.01-0.03
				c0.2-0.391,0.4-0.78,0.59-1.17c0.521-1,1.011-2.01,1.15-3.061c0.53-4.04,0.98-8.069,1.43-12.12c0.101,5.14,0.2,10.28,0.301,15.43
				c0-0.021,0.01-0.061,0.01-0.061c-0.11-5.12-0.21-10.25-0.311-15.37c0-0.01,0-0.01,0-0.02c0.511-4.56,1.021-9.12,1.66-13.66
				c0.561-3.8-0.71-5.14-4.34-5.24c-2.66-0.08-5.29-0.89-7.93-0.91c-4.17-0.04-4.98-1.99-4.37-5.74c0.85-5.24,1.28-10.54,1.93-16.12
				C340.67,14.38,356.47,16.2,372.16,18.01z M355.2,20.21c0.02-0.44,0.04-0.88,0.06-1.32c-9.319-1.08-18.63-2.15-28.09-3.24
				c-0.38,3.22-0.68,5.93-1,8.62c0.39,0.06,0.79,0.13,1.19,0.19c0.529-2.11,1.069-4.22,1.84-7.25c6.569,0.77,13.06,1.51,19.53,2.25
				C350.89,19.71,353.04,19.96,355.2,20.21z"/>
			<path fill="#FEF059" d="M364.17,38.58c0.33,0.02,0.66,0.06,0.98,0.15C364.83,38.65,364.5,38.61,364.17,38.58z"/>
			<path d="M355.26,18.89c-0.02,0.44-0.04,0.88-0.06,1.32c-2.16-0.25-4.311-0.5-6.47-0.75c-6.471-0.75-12.961-1.49-19.53-2.25
				c-0.771,3.03-1.311,5.14-1.84,7.25c-0.4-0.06-0.801-0.13-1.19-0.19c0.32-2.69,0.62-5.4,1-8.62
				C336.63,16.74,345.93,17.82,355.26,18.89z"/>
			<path fill="#FFFFFF" d="M338.43,54.31c0.101,5.12,0.2,10.25,0.311,15.37c0,0-0.01,0.04-0.01,0.061
				C338.63,64.59,338.53,59.45,338.43,54.31z"/>
			<path fill="#FFFFFF" d="M335.85,69.49c-0.189,0.39-0.39,0.779-0.59,1.17C335.45,70.27,335.65,69.87,335.85,69.49z"/>
			<path fill="#FEF059" d="M329.2,17.21c6.569,0.76,13.06,1.5,19.53,2.25C342.26,18.72,335.77,17.98,329.2,17.21z"/>
			<path fill="#FFFFFF" d="M335.06,71.11c-0.01,0.029-0.029,0.069-0.04,0.1h-0.01C335.02,71.18,335.04,71.14,335.06,71.11z"/>
			<path fill="#FFFFFF" d="M335.01,71.21c-0.01,0-0.01,0.01-0.01,0.01v-0.01H335.01z"/>
			<path d="M317.76,21.57c2.79,5.08,2.57,5.75-2.59,8.19c-5.68,2.68-11.37,5.37-17.92,8.47c6.09,3.2,11.47,6.05,16.89,8.82
				c5.23,2.68,5.48,3.63,2.08,8.57c-6.47,9.37-21.05,17.22-37.109,10.85c-12.391-4.92-20.28-18.07-18.79-31.94
				c1.51-14.13,12.3-25.48,26.069-27.41C299.54,5.28,311.99,11.02,317.76,21.57z M314.8,24.84c-1.859-2.93-3.02-5.71-4.89-7.63
				c-0.13-0.13-0.26-0.26-0.391-0.38c-0.26-0.24-0.539-0.46-0.829-0.67c-2.03-1.48-4.631-2.36-6.98-3.45
				c-1.729-0.81-3.58-1.39-5.37-2.06c-0.49-0.17-0.979-0.32-1.47-0.44c-0.73-0.19-1.47-0.32-2.2-0.41
				c-12.96-1.59-25.26,11.42-27.189,20.1c-0.721,3.26-0.94,6.45-0.711,9.5c0.051,0.67,0.12,1.33,0.221,1.98
				c0.22,1.48,0.55,2.93,0.979,4.33c0.21,0.68,0.45,1.34,0.71,2c1.311,3.26,3.221,6.19,5.67,8.63c0.49,0.49,1,0.96,1.54,1.4
				c0.53,0.45,1.08,0.88,1.65,1.279c1.72,1.211,3.62,2.23,5.68,3.021c0.681,0.26,1.391,0.5,2.11,0.71h0.01
				c12.24,3.58,25.58-1.5,29.41-11.33c-1.23-0.68-2.46-1.35-3.7-2.03c-1.7-0.93-3.399-1.86-5.13-2.8
				c-4.97-2.72-10.09-5.51-15.6-8.51C297.71,33.38,306.08,29.2,314.8,24.84z"/>
			<path fill="#FFFF0B" d="M309.91,17.21c1.87,1.92,3.03,4.7,4.89,7.63c-8.72,4.36-17.09,8.54-26.479,13.24
				c5.51,3,10.63,5.79,15.6,8.51c1.73,0.95,3.43,1.88,5.13,2.8c1.24,0.68,2.47,1.35,3.7,2.03c-3.83,9.83-17.17,14.91-29.41,11.33
				h-0.01c-0.72-0.21-1.42-0.45-2.11-0.71c-2.06-0.79-3.96-1.81-5.68-3.021c-0.57-0.409-1.12-0.829-1.65-1.279
				c-0.54-0.45-1.05-0.92-1.54-1.4c-2.449-2.44-4.359-5.37-5.67-8.63c-0.26-0.65-0.5-1.32-0.71-2c-0.43-1.4-0.76-2.85-0.979-4.33
				c-0.101-0.65-0.17-1.31-0.221-1.98c-0.229-3.05-0.01-6.24,0.711-9.5c1.93-8.68,14.229-21.69,27.189-20.1
				c0.74,0.09,1.47,0.23,2.2,0.41c0.49,0.13,0.979,0.27,1.47,0.44c1.79,0.67,3.641,1.25,5.37,2.06c2.35,1.09,4.95,1.97,6.98,3.45
				c0.29,0.22,0.569,0.44,0.829,0.68C309.65,16.96,309.78,17.08,309.91,17.21z M310.48,52.81c-1.761-0.89-3.44-1.74-5.04-2.55
				c-0.801-0.41-1.58-0.81-2.351-1.19c-3.85-1.95-7.34-3.71-10.83-5.47c-0.319,0.55-0.63,1.12-0.939,1.69
				c4.6,2.55,9.199,5.11,13.939,7.74c-1.42,1.78-2.529,3.16-3.64,4.55c0.36,0.37,0.729,0.74,1.1,1.11
				C304.92,57.03,307.11,55.36,310.48,52.81z"/>
			<path fill="#FEF059" d="M309.91,17.21c-0.13-0.13-0.26-0.25-0.391-0.37c-0.26-0.24-0.539-0.46-0.829-0.68
				c0.29,0.21,0.569,0.43,0.829,0.67C309.65,16.95,309.78,17.08,309.91,17.21z"/>
			<path fill="#FEF059" d="M303.92,46.59c1.73,0.94,3.43,1.87,5.13,2.8C307.35,48.47,305.65,47.54,303.92,46.59z"/>
			<path d="M305.44,50.26c1.6,0.81,3.279,1.66,5.04,2.55c-3.37,2.55-5.561,4.22-7.761,5.88c-0.37-0.37-0.739-0.74-1.1-1.11
				c1.11-1.39,2.22-2.77,3.64-4.55c-4.74-2.64-9.34-5.2-13.939-7.74c0.31-0.57,0.62-1.14,0.939-1.69c3.49,1.76,6.98,3.52,10.83,5.47
				C303.86,49.46,304.64,49.86,305.44,50.26z"/>
			<path fill="#FEF059" d="M294.87,10.21c0.49,0.12,0.979,0.27,1.47,0.44C295.85,10.48,295.36,10.34,294.87,10.21z"/>
			<path fill="#FEF059" d="M291.32,45.29c4.6,2.54,9.199,5.1,13.939,7.74C300.52,50.4,295.92,47.84,291.32,45.29z"/>
			<path fill="#FEF059" d="M294.87,10.21c-0.73-0.18-1.46-0.32-2.2-0.41C293.4,9.89,294.14,10.02,294.87,10.21z"/>
			<path d="M267.93,64.48c2.101,3.739,0.301,4.76-3.14,4.829c-9.81,0.181-19.61,0.381-29.42,0.58v-0.01
				c-9.64,0.19-19.28,0.42-28.93,0.561c-4.87,0.069-5.74-1.351-3.42-5.54c9.65-17.41,19.34-34.8,29.06-52.17
				c2.36-4.19,4.25-4.34,6.58-0.27C248.5,29.76,258.17,47.15,267.93,64.48z M265.35,66.91c-1.149-1.311-2.659-2.54-3.54-4.13
				c-8.129-14.51-16.149-29.09-24.22-43.64c-0.58-1.05-1.39-1.96-2.4-3.36c-9.43,17.06-18.55,33.58-28.07,50.82
				c17.62-0.35,34.21-0.68,52.27-1.05c-2.109,0.771-2.79,1.021-4.32,1.57C259.33,67.04,262.59,66.97,265.35,66.91z"/>
			<path fill="#FEF059" d="M265.97,45.71c0.21,0.68,0.45,1.35,0.71,2C266.42,47.05,266.18,46.39,265.97,45.71z"/>
			<path fill="#FEF059" d="M264.77,39.4c0.051,0.67,0.12,1.33,0.221,1.98C264.89,40.73,264.82,40.07,264.77,39.4z"/>
			<path fill="#FFFF0B" d="M261.81,62.78c0.881,1.59,2.391,2.819,3.54,4.13c-2.76,0.06-6.02,0.13-10.28,0.21
				c1.53-0.55,2.21-0.8,4.32-1.57c-18.06,0.37-34.649,0.7-52.27,1.05c9.52-17.24,18.64-33.76,28.07-50.82
				c1.01,1.4,1.82,2.31,2.4,3.36C245.66,33.69,253.68,48.27,261.81,62.78z M247.17,64.11c4.16-0.08,8.32-0.17,13.5-0.271
				c-3.01-5.22-5.71-9.89-8.41-14.56c-0.48,0.24-0.96,0.49-1.44,0.73c1.81,3.86,3.61,7.721,5.58,11.971
				c-3.6,0.319-6.46,0.579-9.3,0.84C247.12,63.25,247.14,63.68,247.17,64.11z"/>
			<path d="M260.67,63.84c-5.18,0.101-9.34,0.19-13.5,0.271c-0.03-0.431-0.05-0.86-0.07-1.29c2.84-0.261,5.7-0.521,9.3-0.84
				c-1.97-4.25-3.77-8.11-5.58-11.971c0.48-0.24,0.96-0.49,1.44-0.73C254.96,53.95,257.66,58.62,260.67,63.84z"/>
			<path d="M214.67,31.07c0.47,8.06-7.11,16.93-16.89,19.77c-1.42,0.41-2.87,0.75-4.74,1.23c0.4,5.95,0.62,11.42,1.19,16.871
				c0.31,3.02-0.2,4.68-3.66,4.939c-8.3,0.62-16.56,1.49-24.84,2.311c-3.13,0.3-4.6-1.15-4.97-4.171
				c-2.13-17.689-4.37-35.359-6.29-53.08c-0.16-1.4,1.78-4.25,3-4.39c12.18-1.47,24.41-3.27,36.65-3.48
				C205.79,10.87,214.03,19.75,214.67,31.07z M206.67,39.86c2.7-3.14,4.2-6.88,3.89-10.49c-0.61-7.1-8.71-16.09-15.98-15.95
				c-0.76,0.01-1.52,0.03-2.28,0.05c-1.53,0.05-3.05,0.11-4.57,0.19c-1.52,0.07-3.04,0.16-4.57,0.26c-1.52,0.1-3.04,0.2-4.56,0.32
				c-0.88,0.07-1.77,0.14-2.65,0.21c-4.44,0.36-8.88,0.76-13.32,1.13c-1.52,0.12-3.04,0.24-4.56,0.36c0.04,0.48,0.09,0.95,0.13,1.43
				c8.57-1.05,17.14-2.1,25.71-3.14c-6.95,1.71-13.89,3.58-20.95,4.26c-4.26,0.41-4.98,1.83-4.44,5.54
				c1.84,12.69,3.52,25.41,5.24,38.1c0.41,3.07,0.75,6.15,1.15,9.38c8.56-1.05,16.3-1.979,25.28-3.09c-0.68-5.55-1.2-10.81-2-16.03
				c-0.18-1.16-0.15-2.1,0.11-2.84c0.01,0,0-0.01,0-0.01c0.12-0.32,0.28-0.6,0.48-0.84c0.62-0.73,1.66-1.13,3.2-1.22
				c1.32-0.07,2.64-0.41,3.92-0.77c3.43-0.99,6.49-2.75,8.93-4.96c0.37-0.33,0.73-0.68,1.08-1.04c0.08-0.09,0.17-0.18,0.24-0.27
				C206.33,40.25,206.51,40.06,206.67,39.86z"/>
			<path fill="#FFFF0B" d="M210.56,29.37c0.31,3.61-1.19,7.35-3.89,10.49c-0.16,0.2-0.33,0.39-0.52,0.58
				c-0.07,0.09-0.16,0.18-0.24,0.27c-0.34,0.35-0.7,0.7-1.08,1.04c-2.44,2.21-5.5,3.97-8.93,4.96c-1.28,0.36-2.6,0.7-3.92,0.77
				c-1.54,0.09-2.58,0.49-3.2,1.22c-0.21,0.24-0.37,0.52-0.48,0.84c0,0,0.01,0.01,0,0.01c-0.26,0.74-0.29,1.68-0.11,2.84
				c0.8,5.22,1.32,10.48,2,16.03c-8.98,1.11-16.72,2.04-25.28,3.09c-0.4-3.229-0.74-6.31-1.15-9.38c-1.72-12.69-3.4-25.41-5.24-38.1
				c-0.54-3.71,0.18-5.13,4.44-5.54c7.06-0.68,14-2.55,20.95-4.26c-8.57,1.04-17.14,2.09-25.71,3.14c-0.04-0.48-0.09-0.95-0.13-1.43
				c1.52-0.12,3.04-0.24,4.56-0.36c4.44-0.36,8.88-0.76,13.32-1.13c0.88-0.07,1.77-0.14,2.65-0.21c1.52-0.11,3.04-0.22,4.56-0.32
				c1.53-0.1,3.05-0.19,4.57-0.26c1.52-0.08,3.04-0.14,4.57-0.19c0.76-0.02,1.52-0.04,2.28-0.05
				C201.85,13.28,209.95,22.27,210.56,29.37z M185.36,47.93c20.5-8,24.47-11.37,22.44-20.63c-1.23,4.21-3.06,7.35-5.33,9.72
				c-0.46,0.48-0.93,0.92-1.42,1.34c-2.68,2.28-5.86,3.72-9.29,4.71c-2.81,0.8-5.79,1.31-8.82,1.75v0.01
				c0.54,7.06,1.04,13.72,1.54,20.29c-4.52,0.86-8.52,1.61-12.39,2.34c-1.29,0.24-2.57,0.48-3.85,0.73v0.01
				c0.08,0.319,0.16,0.63,0.24,0.95c5.42-0.66,10.82-1.32,16.65-2.03c0.84-0.101,1.68-0.2,2.53-0.3V66.81
				C186.85,60.2,186.1,53.97,185.36,47.93z"/>
			<path d="M207.8,27.3c2.03,9.26-1.94,12.63-22.44,20.63c0.74,6.04,1.49,12.27,2.3,18.879c-0.85,0.101-1.69,0.21-2.53,0.311
				c-5.83,0.71-11.23,1.37-16.65,2.03c-0.08-0.32-0.16-0.631-0.24-0.95c1.28-0.24,2.56-0.49,3.85-0.74
				c3.87-0.729,7.87-1.479,12.39-2.34c-0.5-6.57-1-13.23-1.54-20.29c3.03-0.44,6.01-0.95,8.82-1.76c3.43-0.99,6.61-2.42,9.29-4.71
				c0.49-0.41,0.97-0.86,1.42-1.34C204.74,34.65,206.57,31.51,207.8,27.3z"/>
			<path fill="#FEF059" d="M204.83,41.75c0.38-0.34,0.74-0.69,1.08-1.04C205.56,41.07,205.2,41.42,204.83,41.75z"/>
			<path fill="#FEF059" d="M187.73,13.66c1.52-0.08,3.04-0.14,4.57-0.19C190.77,13.52,189.25,13.58,187.73,13.66z"/>
			<path fill="#FEF059" d="M188.78,48.7c-0.2,0.24-0.36,0.52-0.48,0.84C188.41,49.22,188.57,48.94,188.78,48.7z"/>
			<path fill="#FEF059" d="M188.3,49.55c-0.26,0.74-0.29,1.68-0.11,2.84C188.01,51.23,188.04,50.29,188.3,49.55z"/>
			<path fill="#FEF059" d="M187.66,66.81v0.011c-0.85,0.1-1.69,0.199-2.53,0.3C185.97,67.02,186.81,66.91,187.66,66.81z"/>
			<path fill="#FEF059" d="M178.6,14.24c1.52-0.12,3.04-0.22,4.56-0.32C181.64,14.02,180.12,14.13,178.6,14.24z"/>
			<path fill="#FEF059" d="M162.63,15.58c4.44-0.37,8.88-0.77,13.32-1.13C171.51,14.82,167.07,15.22,162.63,15.58z"/>
			<path d="M151.62,54.81c5.75,1.21,6.23,2.07,4.23,7.72c-3.79,10.739-15.8,22.12-32.98,20.16C109.62,81.18,98.58,70.54,96.4,56.78
				c-2.23-14.04,5.22-27.82,18.01-33.27c12.22-5.21,25.72-2.93,34.05,5.76c4.01,4.17,3.98,4.88-0.36,8.57
				c-4.78,4.07-9.57,8.16-15.09,12.86C139.72,52.19,145.66,53.55,151.62,54.81z M146.45,33.2c-2.73-2.5-4.64-5.04-7.18-6.35
				c-2.54-1.3-5.69-1.45-8.61-1.95c-1.88-0.33-3.81-0.4-5.73-0.58c-15.01-1.03-25.2,16.91-24.76,26.63
				c0.71,15.479,11.46,26.77,25.81,27.06c12.75,0.25,24.3-8.14,25.44-18.63c-8.64-2.08-17.32-4.16-27.07-6.5
				C132.19,45.9,139.18,39.67,146.45,33.2z"/>
			<path d="M129.59,57.18c6.13,1.27,12.25,2.53,20,4.15c-2.58,3.33-4.27,5.52-5.96,7.7c-0.45-0.261-0.91-0.53-1.35-0.79
				c0.36-0.82,0.71-1.63,1.09-2.5s0.79-1.8,1.24-2.84c-5.27-1.311-10.37-2.57-15.48-3.841C129.29,58.44,129.44,57.81,129.59,57.18z"
				/>
			<path fill="#FFFF0B" d="M139.27,26.85c2.54,1.31,4.45,3.85,7.18,6.35c-7.27,6.47-14.26,12.7-22.1,19.68
				c9.75,2.34,18.43,4.42,27.07,6.5c-1.14,10.49-12.69,18.88-25.44,18.63c-14.35-0.29-25.1-11.58-25.81-27.06
				c-0.44-9.72,9.75-27.66,24.76-26.63c1.92,0.18,3.85,0.25,5.73,0.58C133.58,25.4,136.73,25.55,139.27,26.85z M149.59,61.33
				c-7.75-1.62-13.87-2.88-20-4.15c-0.15,0.629-0.3,1.26-0.46,1.879c5.11,1.271,10.21,2.53,15.48,3.841
				c-0.45,1.04-0.86,1.97-1.24,2.84c-0.39,0.87-0.74,1.68-1.09,2.5c0.44,0.26,0.9,0.529,1.35,0.79
				C145.32,66.85,147.01,64.66,149.59,61.33z"/>
			<path fill="#FEF059" d="M143.37,65.74c-0.38,0.87-0.73,1.68-1.09,2.5C142.63,67.42,142.98,66.61,143.37,65.74z"/>
			<path d="M103.42,82.45c0.96,3.2,0.21,5.01-2.29,6.06l-0.97-1.71c-5.47-18.85-10.78-37.14-16.1-55.44
				c-3.19,0.92-6.37,1.85-9.49,2.75l-0.51-2.2c2.88-0.84,5.74-1.71,8.59-2.61c3.4-1.07,5.3-0.22,6.31,3.32
				C93.69,49.25,98.51,65.87,103.42,82.45z"/>
			<polygon points="100.16,86.8 101.13,88.51 101.12,88.51 			"/>
			<path d="M100.16,86.8l0.96,1.71c-0.43,0.181-0.9,0.33-1.42,0.471C94.06,90.44,88.44,92,82.93,93.84
				c-3.67,1.24-5.45,0.44-6.46-3.43c-2.19-8.37-4.76-16.63-7.16-24.94c0.02-0.01,0.04-0.02,0.06-0.02
				c-2.41-8.3-4.73-16.64-7.28-24.9c-1.06-3.43-0.28-5.31,3.31-6.24c2.9-0.76,5.78-1.56,8.66-2.4l0.51,2.2
				c-3.13,0.9-6.17,1.8-9.1,2.64c1.31,4.52,2.62,9.03,3.93,13.54c1.96,6.77,3.92,13.52,5.89,20.29c1.97,6.78,3.94,13.57,5.92,20.4
				C88.07,89.47,94.34,88.08,100.16,86.8z"/>
			<path fill="#FFFF0B" d="M84.06,31.36c5.32,18.3,10.63,36.59,16.1,55.44c-5.82,1.28-12.09,2.67-18.95,4.181
				c-1.98-6.83-3.95-13.62-5.92-20.4c-1.96-6.771-3.92-13.52-5.89-20.29c-1.31-4.51-2.62-9.02-3.93-13.54
				c2.93-0.84,5.97-1.74,9.1-2.64C77.69,33.21,80.87,32.28,84.06,31.36z M77.06,70.73c0.49-0.101,0.99-0.211,1.48-0.32
				c-2.02-6.95-3.98-13.93-6.07-20.85c-0.86-2.83-1.81-5.66-1.08-7.9c0.23-0.69,0.62-1.33,1.23-1.9c0.85-0.79,2.12-1.43,3.97-1.87
				h0.01c0.01,0,0.01-0.06-0.01-0.22c-0.01-0.16-0.03-0.42-0.06-0.81c-0.71,0.21-1.42,0.41-2.13,0.62
				c-2.11,0.61-4.22,1.22-6.45,1.87C71.01,49.88,74.03,60.31,77.06,70.73z"/>
			<path d="M78.54,70.41c-0.49,0.109-0.99,0.22-1.48,0.32c-3.03-10.421-6.05-20.851-9.11-31.38c2.23-0.64,4.34-1.25,6.45-1.87
				c0.71-0.21,1.42-0.41,2.13-0.62c0.03,0.39,0.05,0.65,0.06,0.81c0.01,0.16,0.01,0.22,0,0.22c-1.85,0.44-3.12,1.08-3.97,1.87
				c-0.61,0.56-1,1.2-1.23,1.9c-0.73,2.24,0.22,5.07,1.08,7.9C74.56,56.48,76.52,63.46,78.54,70.41z"/>
			<path d="M76.59,37.67c0.02,0.16,0.02,0.22,0.01,0.22h-0.01C76.6,37.89,76.6,37.83,76.59,37.67z"/>
			<path d="M72.62,39.76c-0.61,0.57-1,1.21-1.23,1.9C71.62,40.96,72.01,40.32,72.62,39.76z"/>
			<path fill="#FEF059" d="M69.4,50.29c1.97,6.77,3.93,13.52,5.89,20.29C73.32,63.81,71.36,57.06,69.4,50.29z"/>
			<path d="M67.95,39.35c2.23-0.65,4.34-1.26,6.45-1.87C72.29,38.1,70.18,38.71,67.95,39.35z"/>
			<path d="M39.82,86.57c-0.1-0.41-0.2-0.83-0.31-1.24c0.28,0.729,0.57,1.479,0.84,2.21c0.08,0.18,0.14,0.35,0.22,0.53
				c1.97,5.13,3.95,10.27,5.93,15.399c0.28,0.73,0.56,1.471,0.84,2.2c0.01,0.021,0.02,0.05,0.03,0.07c0.1,0.27,0.2,0.529,0.31,0.8
				v0.02l0.01,0.07c0-0.02,0-0.03,0-0.05c0-0.01,0-0.03,0-0.04c4.89-1.89,9.78-3.78,14.89-5.75c-3.89-10.1-7.61-19.771-11.34-29.44
				c-0.2,0.07-0.38,0.15-0.57,0.221h-0.01c0.03,0.08,0.06,0.17,0.1,0.25c0.29,0.77,0.59,1.54,0.89,2.31
				c3.24,8.4,6.48,16.8,9.71,25.21c-0.32,0.12-0.64,0.25-0.97,0.38c-2.85-7.399-5.7-14.779-8.54-22.18
				c-2.4-6.21-3.23-8.35-0.92-10.09c0.14-0.101,0.28-0.2,0.44-0.311c0.08-0.05,0.16-0.1,0.24-0.149c0.26-0.141,0.54-0.29,0.84-0.45
				c0.51-0.25,1.09-0.5,1.75-0.78c0.26-0.109,0.54-0.22,0.83-0.34c0.72-0.29,1.52-0.6,2.41-0.939c0.46-0.181,0.92-0.4,1.39-0.57
				c0.16-0.05,0.32-0.09,0.48-0.13c0.29-0.07,0.56-0.141,0.81-0.23c0.13-0.05,0.25-0.09,0.37-0.13c0.23-0.09,0.44-0.189,0.64-0.3
				c1.7-0.92,1.99-2.45,1.08-4.78c-0.05-0.13-0.1-0.25-0.15-0.38c-0.56-1.31-1.1-2.63-1.63-3.95c-0.27-0.66-0.53-1.32-0.78-1.99
				c-0.77-1.98-1.51-3.97-2.26-5.94c-0.25-0.66-0.5-1.32-0.74-1.97c-0.24-0.65-0.49-1.3-0.74-1.95H55.9
				c-2.35,0.91-4.71,1.82-7.07,2.72c-2.83,1.1-5.67,2.19-8.5,3.29c-0.34,0.13-0.68,0.26-1.02,0.39c-7.37,2.83-14.71,5.66-21.94,8.45
				c-1.81,0.7-3.61,1.4-5.41,2.09c2.01,5.23,4.11,10.131,5.77,15.17c1.2,3.62,2.83,4.95,6.54,3.061c2.35-1.21,5.06-1.71,7.44-2.87
				c1.55-0.76,2.76-1.02,3.74-0.71c0.41,0.14,0.78,0.38,1.12,0.73c0.33,0.34,0.64,0.8,0.92,1.369v0.011l-0.37,0.17
				c0.03,0.109,0.06,0.21,0.09,0.319c0.06,0.29,0.14,0.58,0.22,0.87c0.55,2.19,1.11,4.36,1.68,6.55
				c0.13,0.511,0.26,1.011,0.38,1.521c0.01,0.01,0.01,0.03,0.01,0.04C39.61,85.74,39.72,86.16,39.82,86.57z M40.27,88.31
				c0.96,3.771,1.93,7.54,2.89,11.32v-0.07C42.19,95.82,41.23,92.06,40.27,88.31z M67.22,59.64c1.37,3.19,1.56,5.63-2.7,6.771
				c-3.35,0.89-6.53,2.439-10.87,4.12c3.52,9.12,6.64,17.7,10.15,26.12c1.76,4.22,0.82,6.119-3.52,7.729
				c-14.02,5.18-13.99,5.36-19.5-8.439C38.62,90.55,36.6,85.1,34.22,78.95c-4.22,1.63-8.07,2.99-11.83,4.6
				c-3.29,1.41-5.35,0.641-6.62-2.77c-2.25-6.09-4.57-12.16-7-18.19c-1.28-3.16-0.43-4.82,2.8-6.03
				c14.35-5.39,28.65-10.91,42.9-16.54c3.1-1.22,4.49-0.37,5.61,2.59C62.28,48.36,64.79,53.99,67.22,59.64z"/>
			<path fill="#FFFF0B" d="M62.21,58.34c0.91,2.33,0.62,3.86-1.08,4.78c-0.2,0.11-0.41,0.21-0.64,0.3
				c-0.12,0.04-0.24,0.08-0.37,0.13c-0.25,0.08-0.52,0.15-0.81,0.22c-0.16,0.04-0.32,0.091-0.48,0.141
				c-0.47,0.17-0.93,0.39-1.39,0.57c-0.89,0.34-1.69,0.649-2.41,0.939c-0.29,0.12-0.57,0.23-0.83,0.34
				c-0.66,0.28-1.24,0.53-1.75,0.78c-0.3,0.16-0.58,0.3-0.84,0.45c-0.08,0.05-0.16,0.1-0.24,0.149c-0.16,0.101-0.3,0.2-0.44,0.311
				c-2.31,1.74-1.48,3.88,0.92,10.09c2.84,7.4,5.69,14.78,8.54,22.18c0.33-0.13,0.65-0.26,0.97-0.38h0.01
				c-3.24-8.41-6.48-16.81-9.72-25.21c-0.3-0.77-0.6-1.54-0.89-2.31c-0.03-0.08-0.06-0.17-0.09-0.25c0.19-0.07,0.37-0.15,0.57-0.221
				c3.73,9.67,7.45,19.341,11.34,29.44c-5.11,1.97-10,3.86-14.89,5.75c-0.05-0.65-0.05-1.32-0.06-1.99c0.01-0.38,0-0.76-0.03-1.13
				c-0.04-0.72-0.14-1.42-0.38-2.06c-2.97-8.13-6.33-16.12-9.23-24.29c-0.16-0.45-0.32-0.84-0.5-1.21V75.85
				c-0.28-0.569-0.59-1.029-0.92-1.369c-0.34-0.351-0.71-0.591-1.12-0.73c-0.98-0.31-2.19-0.05-3.74,0.71
				c-2.38,1.16-5.09,1.66-7.44,2.87c-3.71,1.89-5.34,0.56-6.54-3.061c-1.66-5.039-3.76-9.939-5.77-15.17
				c1.8-0.689,3.6-1.39,5.41-2.09c7.23-2.78,14.57-5.61,21.94-8.45c0.34-0.13,0.68-0.26,1.02-0.39c2.83-1.09,5.67-2.19,8.5-3.29
				c2.36-0.9,4.72-1.81,7.07-2.72c0.25,0.65,0.5,1.3,0.75,1.95c0.24,0.65,0.49,1.31,0.74,1.97c0.74,1.97,1.49,3.96,2.26,5.94
				c0.25,0.67,0.51,1.33,0.78,1.99c0.52,1.32,1.06,2.64,1.62,3.95C62.1,58.09,62.16,58.21,62.21,58.34z M41.89,51.98
				c-0.19-0.4-0.37-0.79-0.55-1.2c-8.75,3.38-17.5,6.75-26.38,10.17c1.17,3.03,2.14,5.56,3.12,8.1c0.38-0.12,0.75-0.25,1.12-0.38
				c-0.5-2.12-1-4.24-1.72-7.28C25.71,58.22,33.8,55.1,41.89,51.98z"/>
			<path fill="#FEF059" d="M51.65,74.13c3.24,8.4,6.48,16.8,9.72,25.21h-0.01C58.13,90.93,54.89,82.53,51.65,74.13z"/>
			<path fill="#FEF059" d="M50.67,71.57c0.03,0.08,0.06,0.17,0.09,0.25c-0.04-0.08-0.07-0.17-0.1-0.25H50.67z"/>
			<path fill="#FFFFFF" d="M47.69,106.58c0,0.02,0,0.03,0,0.05l-0.01-0.07C47.69,106.56,47.69,106.56,47.69,106.58z"/>
			<path fill="#FFFFFF" d="M47.69,106.54c0,0.01,0,0.03,0,0.04c0-0.021,0-0.021-0.01-0.021v-0.02H47.69z"/>
			<path d="M47.69,106.54h-0.01c-0.11-0.271-0.21-0.53-0.31-0.8c-0.01-0.021-0.02-0.05-0.03-0.07c-0.28-0.729-0.56-1.47-0.84-2.2
				c-1.98-5.13-3.96-10.27-5.93-15.399c-0.08-0.181-0.14-0.351-0.22-0.53c-0.27-0.73-0.56-1.48-0.84-2.21H39.5
				c0-0.01,0-0.03-0.01-0.04c-0.12-0.51-0.25-1.01-0.38-1.521c-0.57-2.189-1.12-4.359-1.68-6.55c-0.08-0.29-0.16-0.58-0.22-0.87
				c-0.03-0.109-0.06-0.21-0.09-0.319l0.37-0.17c0.18,0.37,0.34,0.76,0.5,1.21c2.9,8.17,6.26,16.16,9.23,24.29
				c0.24,0.64,0.34,1.34,0.38,2.06c0.03,0.37,0.03,0.75,0.03,1.13C47.64,105.22,47.64,105.89,47.69,106.54z"/>
			<path fill="#FEF059" d="M47.6,103.42c0.03,0.37,0.04,0.75,0.03,1.13C47.63,104.17,47.63,103.79,47.6,103.42z"/>
			<path fill="#FFFFFF" d="M43.16,99.56v0.07c-0.96-3.78-1.93-7.55-2.89-11.32C41.23,92.06,42.19,95.82,43.16,99.56z"/>
			<path d="M41.34,50.78c0.18,0.41,0.36,0.8,0.55,1.2c-8.09,3.12-16.18,6.24-24.41,9.41c0.72,3.04,1.22,5.16,1.72,7.28
				c-0.37,0.13-0.74,0.26-1.12,0.38c-0.98-2.54-1.95-5.069-3.12-8.1C23.84,57.53,32.59,54.16,41.34,50.78z"/>
			<path fill="#FFFFFF" d="M39.51,85.33c0.11,0.41,0.21,0.83,0.31,1.24c-0.1-0.41-0.21-0.83-0.32-1.24H39.51z"/>
			<path d="M37.43,77.22c0.56,2.19,1.11,4.36,1.68,6.55C38.54,81.58,37.98,79.41,37.43,77.22z"/>
		</g>
		<g>
		</g>
	</g>
</g>
</svg>
